# WaveFront *.obj file (generated by Autodesk ATF)

mtllib tvc stage 4 top.mtl

g Body1

v -5.278000 2.278000 9.324703
v -5.263518 2.387998 9.324703
v -5.221061 2.490500 9.324703
v -5.153520 2.578520 9.324703
v -5.065500 2.646061 9.324703
v -4.962998 2.688518 9.324703
v -4.853000 2.703000 9.324703
v -4.743002 2.688518 9.324703
v -4.640500 2.646061 9.324703
v -4.552480 2.578520 9.324703
v -4.484939 2.490500 9.324703
v -4.442482 2.387998 9.324703
v -4.428000 2.278000 9.324703
v -4.442482 2.168002 9.324703
v -4.484939 2.065500 9.324703
v -4.552480 1.977480 9.324703
v -4.640500 1.909939 9.324703
v -4.743002 1.867482 9.324703
v -4.853000 1.853000 9.324703
v -4.962998 1.867482 9.324703
v -5.065500 1.909939 9.324703
v -5.153520 1.977480 9.324703
v -5.221061 2.065500 9.324703
v -5.263518 2.168002 9.324703
v -5.278000 2.278000 9.824703
v -5.263518 2.168002 9.824703
v -5.221061 2.065500 9.824703
v -5.153520 1.977480 9.824703
v -5.065500 1.909939 9.824703
v -4.962998 1.867482 9.824703
v -4.853000 1.853000 9.824703
v -4.743002 1.867482 9.824703
v -4.640500 1.909939 9.824703
v -4.552480 1.977480 9.824703
v -4.484939 2.065500 9.824703
v -4.442482 2.168002 9.824703
v -4.428000 2.278000 9.824703
v -4.442482 2.387998 9.824703
v -4.484939 2.490500 9.824703
v -4.552480 2.578520 9.824703
v -4.640500 2.646061 9.824703
v -4.743002 2.688518 9.824703
v -4.853000 2.703000 9.824703
v -4.962998 2.688518 9.824703
v -5.065500 2.646061 9.824703
v -5.153520 2.578520 9.824703
v -5.221061 2.490500 9.824703
v -5.263518 2.387998 9.824703
v 4.222000 -1.522000 9.324703
v 4.236482 -1.412002 9.324703
v 4.278939 -1.309500 9.324703
v 4.346480 -1.221480 9.324703
v 4.434500 -1.153939 9.324703
v 4.537002 -1.111482 9.324703
v 4.647000 -1.097000 9.324703
v 4.756998 -1.111482 9.324703
v 4.859500 -1.153939 9.324703
v 4.947520 -1.221480 9.324703
v 5.015061 -1.309500 9.324703
v 5.057518 -1.412002 9.324703
v 5.072000 -1.522000 9.324703
v 5.057518 -1.631998 9.324703
v 5.015061 -1.734500 9.324703
v 4.947520 -1.822520 9.324703
v 4.859500 -1.890061 9.324703
v 4.756998 -1.932518 9.324703
v 4.647000 -1.947000 9.324703
v 4.537002 -1.932518 9.324703
v 4.434500 -1.890061 9.324703
v 4.346480 -1.822520 9.324703
v 4.278939 -1.734500 9.324703
v 4.236482 -1.631998 9.324703
v 4.222000 -1.522000 9.824703
v 4.236482 -1.631998 9.824703
v 4.278939 -1.734500 9.824703
v 4.346480 -1.822520 9.824703
v 4.434500 -1.890061 9.824703
v 4.537002 -1.932518 9.824703
v 4.647000 -1.947000 9.824703
v 4.756998 -1.932518 9.824703
v 4.859500 -1.890061 9.824703
v 4.947520 -1.822520 9.824703
v 5.015061 -1.734500 9.824703
v 5.057518 -1.631998 9.824703
v 5.072000 -1.522000 9.824703
v 5.057518 -1.412002 9.824703
v 5.015061 -1.309500 9.824703
v 4.947520 -1.221480 9.824703
v 4.859500 -1.153939 9.824703
v 4.756998 -1.111482 9.824703
v 4.647000 -1.097000 9.824703
v 4.537002 -1.111482 9.824703
v 4.434500 -1.153939 9.824703
v 4.346480 -1.221480 9.824703
v 4.278939 -1.309500 9.824703
v 4.236482 -1.412002 9.824703
v 4.794580 -0.837734 9.624703
v 4.794580 -0.837734 9.994000
v 4.794580 2.499519 9.994000
v 4.794580 2.499519 9.624703
v 4.493581 -2.204981 9.994000
v 4.493581 -2.204981 9.624703
v 3.882832 -2.768010 9.624703
v 3.203856 -3.246559 9.624703
v 2.468256 -3.632447 9.624703
v 1.688604 -3.919082 9.624703
v 0.878223 -4.101564 9.624703
v 0.050962 -4.176774 9.624703
v -0.779041 -4.143429 9.624703
v -1.597602 -4.002096 9.624703
v -2.390732 -3.755193 9.624703
v -3.144877 -3.406937 9.624703
v -3.847149 -2.963281 9.624703
v -4.485547 -2.431807 9.624703
v -5.049161 -1.821596 9.624703
v -5.049161 -1.821596 9.994000
v -4.485547 -2.431807 9.994000
v -3.847149 -2.963281 9.994000
v -3.144877 -3.406937 9.994000
v -2.390732 -3.755193 9.994000
v -1.597602 -4.002096 9.994000
v -0.779041 -4.143429 9.994000
v 0.050962 -4.176774 9.994000
v 0.878223 -4.101564 9.994000
v 1.688604 -3.919082 9.994000
v 2.468256 -3.632447 9.994000
v 3.203856 -3.246559 9.994000
v 3.882832 -2.768010 9.994000
v -4.677761 2.955710 9.994000
v -4.677761 2.955710 9.624703
v -4.064252 3.504133 9.624703
v -3.385013 3.968673 9.624703
v -2.651437 4.341537 9.624703
v -1.875827 4.616474 9.624703
v -1.071190 4.788872 9.624703
v -0.251021 4.855840 9.624703
v 0.570925 4.816255 9.624703
v 1.380863 4.670781 9.624703
v 2.165209 4.421857 9.624703
v 2.910809 4.073658 9.624703
v 3.605158 3.632023 9.624703
v 4.236612 3.104361 9.624703
v 4.236612 3.104361 9.994000
v 3.605158 3.632023 9.994000
v 2.910809 4.073658 9.994000
v 2.165209 4.421857 9.994000
v 1.380863 4.670781 9.994000
v 0.570925 4.816255 9.994000
v -0.251021 4.855840 9.994000
v -1.071190 4.788872 9.994000
v -1.875827 4.616474 9.994000
v -2.651437 4.341537 9.994000
v -3.385013 3.968673 9.994000
v -4.064252 3.504133 9.994000
v -5.049161 1.606047 9.624703
v -5.049161 1.606047 9.994000
v -4.519199 2.893286 9.994000
v -4.380418 2.794397 9.994000
v -4.269644 2.664906 9.994000
v -4.193442 2.512484 9.994000
v -4.156327 2.346167 9.994000
v -4.160499 2.175810 9.994000
v -4.205712 2.011509 9.994000
v -4.289284 1.863001 9.994000
v -4.406265 1.739087 9.994000
v -4.549720 1.647111 9.994000
v -4.711148 1.592523 9.994000
v -4.880984 1.578560 9.994000
v -4.880984 1.578560 9.624703
v -4.711148 1.592523 9.624703
v -4.549720 1.647111 9.624703
v -4.406265 1.739087 9.624703
v -4.289284 1.863001 9.624703
v -4.205712 2.011509 9.624703
v -4.160499 2.175810 9.624703
v -4.156327 2.346167 9.624703
v -4.193442 2.512484 9.624703
v -4.269644 2.664906 9.624703
v -4.380418 2.794397 9.624703
v -4.519199 2.893286 9.624703
v 4.322481 -2.142232 9.994000
v 4.173378 -2.037444 9.994000
v 4.056377 -1.897718 9.994000
v 3.979408 -1.732527 9.994000
v 3.947690 -1.553066 9.994000
v 3.963370 -1.371499 9.994000
v 4.025388 -1.200133 9.994000
v 4.129538 -1.050584 9.994000
v 4.268762 -0.932987 9.994000
v 4.433624 -0.855314 9.994000
v 4.612948 -0.822829 9.994000
v 4.612948 -0.822829 9.624703
v 4.433624 -0.855314 9.624703
v 4.268762 -0.932987 9.624703
v 4.129538 -1.050584 9.624703
v 4.025388 -1.200133 9.624703
v 3.963370 -1.371499 9.624703
v 3.947690 -1.553066 9.624703
v 3.979408 -1.732527 9.624703
v 4.056377 -1.897718 9.624703
v 4.173378 -2.037444 9.624703
v 4.322481 -2.142232 9.624703
v 5.094580 -1.971433 9.994000
v 5.094580 2.604319 9.994000
v 4.523852 3.243805 9.994000
v 3.875658 3.804623 9.994000
v 3.160753 4.277469 9.994000
v 2.390998 4.654497 9.994000
v 1.579165 4.929452 9.994000
v 0.738724 5.097771 9.994000
v -0.116381 5.156662 9.994000
v -0.971962 5.105148 9.994000
v -1.813823 4.944083 9.994000
v -2.627997 4.676140 9.994000
v -3.400975 4.305765 9.994000
v -4.119932 3.839102 9.994000
v -4.772938 3.283895 9.994000
v -5.349161 2.649356 9.994000
v -5.349161 -1.926396 9.994000
v -4.778432 -2.565882 9.994000
v -4.130238 -3.126700 9.994000
v -3.415333 -3.599546 9.994000
v -2.645578 -3.976574 9.994000
v -1.833746 -4.251529 9.994000
v -0.993305 -4.419848 9.994000
v -0.138200 -4.478739 9.994000
v 0.717381 -4.427225 9.994000
v 1.559243 -4.266160 9.994000
v 2.373417 -3.998218 9.994000
v 3.146395 -3.627842 9.994000
v 3.865351 -3.161180 9.994000
v 4.518358 -2.605973 9.994000
v -5.349161 -1.926396 9.324703
v -4.778432 -2.565882 9.324703
v -4.130238 -3.126700 9.324703
v -3.415333 -3.599546 9.324703
v -2.645578 -3.976574 9.324703
v -1.833746 -4.251529 9.324703
v -0.993305 -4.419848 9.324703
v -0.138200 -4.478739 9.324703
v 0.717381 -4.427225 9.324703
v 1.559243 -4.266160 9.324703
v 2.373417 -3.998218 9.324703
v 3.146395 -3.627842 9.324703
v 3.865351 -3.161180 9.324703
v 4.518358 -2.605973 9.324703
v 5.094580 -1.971433 9.324703
v -5.349161 2.649356 9.324703
v -4.772938 3.283895 9.324703
v -4.119932 3.839102 9.324703
v -3.400975 4.305765 9.324703
v -2.627997 4.676140 9.324703
v -1.813823 4.944083 9.324703
v -0.971962 5.105148 9.324703
v -0.116381 5.156662 9.324703
v 0.738724 5.097771 9.324703
v 1.579165 4.929452 9.324703
v 2.390998 4.654497 9.324703
v 3.160753 4.277469 9.324703
v 3.875658 3.804623 9.324703
v 4.523852 3.243805 9.324703
v 5.094580 2.604319 9.324703
vt -0.250000 -0.111265 0.000000
vt 0.250000 -0.111265 0.000000
vt -0.250000 0.000000 0.000000
vt 0.250000 -0.000000 0.000000
vt -0.250000 0.111265 0.000000
vt 0.250000 0.111265 0.000000
vt -0.250000 0.222529 0.000000
vt 0.250000 0.222529 0.000000
vt -0.250000 0.333794 0.000000
vt 0.250000 0.333794 0.000000
vt -0.250000 0.445059 0.000000
vt 0.250000 0.445059 0.000000
vt -0.250000 0.556324 0.000000
vt 0.250000 0.556324 0.000000
vt -0.250000 0.667588 0.000000
vt 0.250000 0.667588 0.000000
vt -0.250000 0.778853 0.000000
vt 0.250000 0.778853 0.000000
vt -0.250000 0.890118 0.000000
vt 0.250000 0.890118 0.000000
vt -0.250000 1.001383 0.000000
vt 0.250000 1.001383 0.000000
vt -0.250000 1.112647 0.000000
vt 0.250000 1.112647 0.000000
vt -0.250000 1.223912 0.000000
vt 0.250000 1.223912 0.000000
vt -0.250000 1.335177 0.000000
vt 0.250000 1.335177 0.000000
vt -0.250000 -1.335177 0.000000
vt 0.250000 -1.335177 0.000000
vt -0.250000 -1.223912 0.000000
vt 0.250000 -1.223912 0.000000
vt -0.250000 -1.112647 0.000000
vt 0.250000 -1.112647 0.000000
vt -0.250000 -1.001383 0.000000
vt 0.250000 -1.001383 0.000000
vt -0.250000 -0.890118 0.000000
vt 0.250000 -0.890118 0.000000
vt -0.250000 -0.778853 0.000000
vt 0.250000 -0.778853 0.000000
vt -0.250000 -0.667588 0.000000
vt 0.250000 -0.667588 0.000000
vt -0.250000 -0.556324 0.000000
vt 0.250000 -0.556324 0.000000
vt -0.250000 -0.445059 0.000000
vt 0.250000 -0.445059 0.000000
vt -0.250000 -0.333794 0.000000
vt 0.250000 -0.333794 0.000000
vt -0.250000 -0.222529 0.000000
vt 0.250000 -0.222529 0.000000
vt -0.410518 -0.109998 0.000000
vt 0.410518 -0.109998 0.000000
vt -0.425000 0.000000 0.000000
vt 0.425000 -0.000000 0.000000
vt -0.410518 0.109998 0.000000
vt 0.410518 0.109998 0.000000
vt -0.368061 0.212500 0.000000
vt 0.368061 0.212500 0.000000
vt -0.300520 0.300520 0.000000
vt 0.300520 0.300520 0.000000
vt -0.212500 0.368061 0.000000
vt 0.212500 0.368061 0.000000
vt -0.109998 0.410518 0.000000
vt 0.109998 0.410518 0.000000
vt -0.000000 0.425000 0.000000
vt 0.368061 -0.212500 0.000000
vt -0.368061 -0.212500 0.000000
vt 0.300520 -0.300520 0.000000
vt -0.300520 -0.300520 0.000000
vt 0.212500 -0.368061 0.000000
vt -0.212500 -0.368061 0.000000
vt 0.109998 -0.410518 0.000000
vt -0.109998 -0.410518 0.000000
vt -0.000000 -0.425000 0.000000
vt -0.250000 -0.111265 0.000000
vt 0.250000 -0.111265 0.000000
vt -0.250000 0.000000 0.000000
vt 0.250000 -0.000000 0.000000
vt -0.250000 0.111265 0.000000
vt 0.250000 0.111265 0.000000
vt -0.250000 0.222529 0.000000
vt 0.250000 0.222529 0.000000
vt -0.250000 0.333794 0.000000
vt 0.250000 0.333794 0.000000
vt -0.250000 0.445059 0.000000
vt 0.250000 0.445059 0.000000
vt -0.250000 0.556324 0.000000
vt 0.250000 0.556324 0.000000
vt -0.250000 0.667588 0.000000
vt 0.250000 0.667588 0.000000
vt -0.250000 0.778853 0.000000
vt 0.250000 0.778853 0.000000
vt -0.250000 0.890118 0.000000
vt 0.250000 0.890118 0.000000
vt -0.250000 1.001383 0.000000
vt 0.250000 1.001383 0.000000
vt -0.250000 1.112647 0.000000
vt 0.250000 1.112647 0.000000
vt -0.250000 1.223912 0.000000
vt 0.250000 1.223912 0.000000
vt -0.250000 1.335177 0.000000
vt 0.250000 1.335177 0.000000
vt -0.250000 -1.335177 0.000000
vt 0.250000 -1.335177 0.000000
vt -0.250000 -1.223912 0.000000
vt 0.250000 -1.223912 0.000000
vt -0.250000 -1.112647 0.000000
vt 0.250000 -1.112647 0.000000
vt -0.250000 -1.001383 0.000000
vt 0.250000 -1.001383 0.000000
vt -0.250000 -0.890118 0.000000
vt 0.250000 -0.890118 0.000000
vt -0.250000 -0.778853 0.000000
vt 0.250000 -0.778853 0.000000
vt -0.250000 -0.667588 0.000000
vt 0.250000 -0.667588 0.000000
vt -0.250000 -0.556324 0.000000
vt 0.250000 -0.556324 0.000000
vt -0.250000 -0.445059 0.000000
vt 0.250000 -0.445059 0.000000
vt -0.250000 -0.333794 0.000000
vt 0.250000 -0.333794 0.000000
vt -0.250000 -0.222529 0.000000
vt 0.250000 -0.222529 0.000000
vt -0.410518 -0.109998 0.000000
vt 0.410518 -0.109998 0.000000
vt -0.425000 0.000000 0.000000
vt 0.425000 -0.000000 0.000000
vt -0.410518 0.109998 0.000000
vt 0.410518 0.109998 0.000000
vt -0.368061 0.212500 0.000000
vt 0.368061 0.212500 0.000000
vt -0.300520 0.300520 0.000000
vt 0.300520 0.300520 0.000000
vt -0.212500 0.368061 0.000000
vt 0.212500 0.368061 0.000000
vt -0.109998 0.410518 0.000000
vt 0.109998 0.410518 0.000000
vt -0.000000 0.425000 0.000000
vt 0.368061 -0.212500 0.000000
vt -0.368061 -0.212500 0.000000
vt 0.300520 -0.300520 0.000000
vt -0.300520 -0.300520 0.000000
vt 0.212500 -0.368061 0.000000
vt -0.212500 -0.368061 0.000000
vt 0.109998 -0.410518 0.000000
vt -0.109998 -0.410518 0.000000
vt -0.000000 -0.425000 0.000000
vt -0.843804 -1.330703 0.000000
vt -4.181057 -1.330703 0.000000
vt -0.843804 -1.700000 0.000000
vt -4.181057 -1.700000 0.000000
vt -1.330703 10.617810 0.000000
vt -1.700000 10.617810 0.000000
vt -1.330703 9.786545 0.000000
vt -1.700000 9.786545 0.000000
vt -1.330703 8.955279 0.000000
vt -1.700000 8.955279 0.000000
vt -1.330703 8.124014 0.000000
vt -1.700000 8.124014 0.000000
vt -1.330703 7.292749 0.000000
vt -1.700000 7.292749 0.000000
vt -1.330703 6.461484 0.000000
vt -1.700000 6.461484 0.000000
vt -1.330703 5.630219 0.000000
vt -1.700000 5.630219 0.000000
vt -1.330703 4.798954 0.000000
vt -1.700000 4.798954 0.000000
vt -1.330703 3.967688 0.000000
vt -1.700000 3.967688 0.000000
vt -1.330703 3.136423 0.000000
vt -1.700000 3.136423 0.000000
vt -1.330703 2.305158 0.000000
vt -1.700000 2.305158 0.000000
vt -1.330703 1.473893 0.000000
vt -1.700000 1.473893 0.000000
vt -1.330703 0.642628 0.000000
vt -1.700000 0.642628 0.000000
vt -1.330703 -0.188637 0.000000
vt -1.700000 -0.188637 0.000000
vt -1.330703 10.516532 0.000000
vt -1.700000 10.516532 0.000000
vt -1.330703 9.693057 0.000000
vt -1.700000 9.693057 0.000000
vt -1.330703 8.869583 0.000000
vt -1.700000 8.869583 0.000000
vt -1.330703 8.046108 0.000000
vt -1.700000 8.046108 0.000000
vt -1.330703 7.222634 0.000000
vt -1.700000 7.222634 0.000000
vt -1.330703 6.399159 0.000000
vt -1.700000 6.399159 0.000000
vt -1.330703 5.575684 0.000000
vt -1.700000 5.575684 0.000000
vt -1.330703 4.752210 0.000000
vt -1.700000 4.752210 0.000000
vt -1.330703 3.928735 0.000000
vt -1.700000 3.928735 0.000000
vt -1.330703 3.105261 0.000000
vt -1.700000 3.105261 0.000000
vt -1.330703 2.281786 0.000000
vt -1.700000 2.281786 0.000000
vt -1.330703 1.458312 0.000000
vt -1.700000 1.458312 0.000000
vt -1.330703 0.634837 0.000000
vt -1.700000 0.634837 0.000000
vt -1.330703 -0.188637 0.000000
vt -1.700000 -0.188637 0.000000
vt -0.753414 -1.330703 0.000000
vt -4.181057 -1.330703 0.000000
vt -0.753414 -1.700000 0.000000
vt -4.181057 -1.700000 0.000000
vt -1.124703 1.472214 0.000000
vt -1.494000 1.472214 0.000000
vt -1.124703 1.301382 0.000000
vt -1.494000 1.301382 0.000000
vt -1.124703 1.130550 0.000000
vt -1.494000 1.130550 0.000000
vt -1.124703 0.959718 0.000000
vt -1.494000 0.959718 0.000000
vt -1.124703 0.788886 0.000000
vt -1.494000 0.788886 0.000000
vt -1.124703 0.618054 0.000000
vt -1.494000 0.618054 0.000000
vt -1.124703 0.447222 0.000000
vt -1.494000 0.447222 0.000000
vt -1.124703 0.276390 0.000000
vt -1.494000 0.276390 0.000000
vt -1.124703 0.105558 0.000000
vt -1.494000 0.105558 0.000000
vt -1.124703 -0.065274 0.000000
vt -1.494000 -0.065274 0.000000
vt -1.124703 -0.236106 0.000000
vt -1.494000 -0.236106 0.000000
vt -1.124703 -0.406938 0.000000
vt -1.494000 -0.406938 0.000000
vt -1.124703 -0.577770 0.000000
vt -1.494000 -0.577770 0.000000
vt -1.124703 -0.748602 0.000000
vt -1.494000 -0.748602 0.000000
vt -1.124703 1.494661 0.000000
vt -1.494000 1.494661 0.000000
vt -1.124703 1.311900 0.000000
vt -1.494000 1.311900 0.000000
vt -1.124703 1.129139 0.000000
vt -1.494000 1.129139 0.000000
vt -1.124703 0.946377 0.000000
vt -1.494000 0.946377 0.000000
vt -1.124703 0.763616 0.000000
vt -1.494000 0.763616 0.000000
vt -1.124703 0.580855 0.000000
vt -1.494000 0.580855 0.000000
vt -1.124703 0.398093 0.000000
vt -1.494000 0.398093 0.000000
vt -1.124703 0.215332 0.000000
vt -1.494000 0.215332 0.000000
vt -1.124703 0.032571 0.000000
vt -1.494000 0.032571 0.000000
vt -1.124703 -0.150191 0.000000
vt -1.494000 -0.150191 0.000000
vt -1.124703 -0.332952 0.000000
vt -1.494000 -0.332952 0.000000
vt -1.124703 -0.515713 0.000000
vt -1.494000 -0.515713 0.000000
vt -1.124703 -0.698474 0.000000
vt -1.494000 -0.698474 0.000000
vt 4.921870 -1.176695 0.000000
vt 4.921870 2.160558 0.000000
vt 4.740238 -1.161790 0.000000
vt 4.560914 -1.194275 0.000000
vt 4.396053 -1.271948 0.000000
vt 4.363902 2.765399 0.000000
vt 3.732448 3.293062 0.000000
vt 3.038099 3.734696 0.000000
vt 2.292499 4.082895 0.000000
vt 1.508153 4.331819 0.000000
vt 0.698215 4.477294 0.000000
vt -4.078421 1.672547 0.000000
vt -4.161994 1.524039 0.000000
vt -0.123730 4.516879 0.000000
vt -0.943899 4.449911 0.000000
vt -4.033209 1.836848 0.000000
vt -1.748536 4.277513 0.000000
vt -2.524147 4.002576 0.000000
vt -4.029037 2.007206 0.000000
vt -3.257723 3.629711 0.000000
vt -4.066151 2.173523 0.000000
vt -3.936961 3.165172 0.000000
vt -4.142354 2.325944 0.000000
vt -4.253128 2.455436 0.000000
vt -4.391908 2.554324 0.000000
vt -4.550471 2.616749 0.000000
vt -4.278974 1.400125 0.000000
vt -4.422429 1.308149 0.000000
vt 4.256829 -1.389545 0.000000
vt 4.152678 -1.539095 0.000000
vt 4.090661 -1.710460 0.000000
vt -0.651750 -4.482390 0.000000
vt 0.178253 -4.515736 0.000000
vt -4.583858 1.253562 0.000000
vt -4.921870 -2.160558 0.000000
vt -4.358257 -2.770768 0.000000
vt -3.719859 -3.302243 0.000000
vt -4.753693 1.239598 0.000000
vt -4.921870 1.267085 0.000000
vt -3.017587 -3.745898 0.000000
vt -2.263441 -4.094154 0.000000
vt -1.470311 -4.341058 0.000000
vt 1.005513 -4.440525 0.000000
vt 1.815894 -4.258043 0.000000
vt 4.074980 -1.892027 0.000000
vt 2.595546 -3.971409 0.000000
vt 3.331146 -3.585520 0.000000
vt 4.106699 -2.071488 0.000000
vt 4.010122 -3.106972 0.000000
vt 4.183667 -2.236680 0.000000
vt 4.300668 -2.376405 0.000000
vt 4.449772 -2.481193 0.000000
vt 4.620871 -2.543942 0.000000
vt -1.370168 -2.768010 0.000000
vt -0.734642 -2.605973 0.000000
vt -0.759419 -2.204981 0.000000
vt -0.158420 -1.971433 0.000000
vt -0.930519 -2.142232 0.000000
vt -1.079622 -2.037444 0.000000
vt -1.196623 -1.897718 0.000000
vt -1.273592 -1.732527 0.000000
vt -1.305310 -1.553066 0.000000
vt -1.289630 -1.371499 0.000000
vt -1.227612 -1.200133 0.000000
vt -1.123462 -1.050584 0.000000
vt -0.984238 -0.932987 0.000000
vt -0.819376 -0.855314 0.000000
vt -0.640052 -0.822829 0.000000
vt -0.458420 -0.837734 0.000000
vt -0.158420 2.604319 0.000000
vt -0.458420 2.499519 0.000000
vt -0.729148 3.243805 0.000000
vt -1.016388 3.104361 0.000000
vt -1.377342 3.804623 0.000000
vt -1.647842 3.632023 0.000000
vt -2.092247 4.277469 0.000000
vt -2.342191 4.073658 0.000000
vt -2.862002 4.654497 0.000000
vt -3.087791 4.421857 0.000000
vt -3.673835 4.929452 0.000000
vt -3.872137 4.670781 0.000000
vt -4.514276 5.097771 0.000000
vt -4.682075 4.816255 0.000000
vt -5.369381 5.156662 0.000000
vt -5.504021 4.855840 0.000000
vt -6.224962 5.105148 0.000000
vt -6.324190 4.788872 0.000000
vt -7.066823 4.944083 0.000000
vt -7.128827 4.616474 0.000000
vt -7.880997 4.676140 0.000000
vt -7.904437 4.341537 0.000000
vt -8.653975 4.305765 0.000000
vt -8.638013 3.968673 0.000000
vt -9.372932 3.839102 0.000000
vt -9.317252 3.504133 0.000000
vt -10.025938 3.283895 0.000000
vt -9.930761 2.955710 0.000000
vt -10.602161 2.649356 0.000000
vt -9.772199 2.893286 0.000000
vt -9.633418 2.794397 0.000000
vt -9.522644 2.664906 0.000000
vt -9.446442 2.512484 0.000000
vt -9.409327 2.346167 0.000000
vt -9.413499 2.175810 0.000000
vt -9.458712 2.011509 0.000000
vt -9.542284 1.863001 0.000000
vt -9.659265 1.739087 0.000000
vt -9.802720 1.647111 0.000000
vt -9.964148 1.592523 0.000000
vt -10.133984 1.578560 0.000000
vt -10.302161 1.606047 0.000000
vt -10.602161 -1.926396 0.000000
vt -10.302161 -1.821596 0.000000
vt -10.031432 -2.565882 0.000000
vt -9.738547 -2.431807 0.000000
vt -9.383238 -3.126700 0.000000
vt -9.100149 -2.963281 0.000000
vt -8.668333 -3.599546 0.000000
vt -8.397877 -3.406937 0.000000
vt -7.898578 -3.976574 0.000000
vt -7.643732 -3.755193 0.000000
vt -7.086746 -4.251529 0.000000
vt -6.850602 -4.002096 0.000000
vt -6.246305 -4.419848 0.000000
vt -6.032041 -4.143429 0.000000
vt -5.391200 -4.478739 0.000000
vt -5.202038 -4.176774 0.000000
vt -4.535619 -4.427225 0.000000
vt -4.374777 -4.101564 0.000000
vt -3.693757 -4.266160 0.000000
vt -3.564396 -3.919082 0.000000
vt -2.879583 -3.998218 0.000000
vt -2.784744 -3.632447 0.000000
vt -2.106605 -3.627842 0.000000
vt -2.049144 -3.246559 0.000000
vt -1.387649 -3.161180 0.000000
vt 2.000000 11.703347 0.000000
vt 1.330703 11.703347 0.000000
vt 2.000000 10.845623 0.000000
vt 1.330703 10.845623 0.000000
vt 2.000000 9.987899 0.000000
vt 1.330703 9.987899 0.000000
vt 2.000000 9.130175 0.000000
vt 1.330703 9.130175 0.000000
vt 2.000000 8.272451 0.000000
vt 1.330703 8.272451 0.000000
vt 2.000000 7.414727 0.000000
vt 1.330703 7.414727 0.000000
vt 2.000000 6.557003 0.000000
vt 1.330703 6.557003 0.000000
vt 2.000000 5.699279 0.000000
vt 1.330703 5.699279 0.000000
vt 2.000000 4.841555 0.000000
vt 1.330703 4.841555 0.000000
vt 2.000000 3.983831 0.000000
vt 1.330703 3.983831 0.000000
vt 2.000000 3.126106 0.000000
vt 1.330703 3.126106 0.000000
vt 2.000000 2.268382 0.000000
vt 1.330703 2.268382 0.000000
vt 2.000000 1.410658 0.000000
vt 1.330703 1.410658 0.000000
vt 2.000000 0.552934 0.000000
vt 1.330703 0.552934 0.000000
vt 2.000000 -0.304790 0.000000
vt 1.330703 -0.304790 0.000000
vt 4.285857 -1.330703 0.000000
vt -0.289895 -1.330703 0.000000
vt 4.285857 -2.000000 0.000000
vt -0.289895 -2.000000 0.000000
vt 5.136228 2.049037 0.000000
vt 5.150710 1.939039 0.000000
vt 5.221870 2.310394 0.000000
vt 5.136228 1.829041 0.000000
vt 5.221870 -2.265358 0.000000
vt 5.093771 1.726539 0.000000
vt 5.026230 1.638518 0.000000
vt 4.938210 1.570978 0.000000
vt 4.835708 1.528520 0.000000
vt 4.725710 1.514039 0.000000
vt 4.615712 1.528520 0.000000
vt 4.513210 1.570978 0.000000
vt 4.651142 -2.904843 0.000000
vt 4.425189 1.638518 0.000000
vt 4.002948 -3.465662 0.000000
vt 3.288043 -3.938508 0.000000
vt 2.518288 -4.315536 0.000000
vt 4.357649 1.726539 0.000000
vt 1.706455 -4.590490 0.000000
vt 0.866014 -4.758809 0.000000
vt -4.363772 -1.750963 0.000000
vt 0.010909 -4.817700 0.000000
vt -0.844672 -4.766186 0.000000
vt -1.686533 -4.605122 0.000000
vt -4.349290 -1.860961 0.000000
vt -2.500707 -4.337179 0.000000
vt -3.273685 -3.966804 0.000000
vt -4.363772 -1.970959 0.000000
vt -3.992642 -3.500141 0.000000
vt -4.406229 -2.073461 0.000000
vt -4.473770 -2.161482 0.000000
vt -4.406229 -1.648461 0.000000
vt 4.315191 1.829041 0.000000
vt -0.866014 4.758809 0.000000
vt -0.010909 4.817700 0.000000
vt 0.844672 4.766186 0.000000
vt 1.686533 4.605122 0.000000
vt 4.300710 1.939039 0.000000
vt 2.500707 4.337179 0.000000
vt 3.273685 3.966804 0.000000
vt 4.315191 2.049037 0.000000
vt 3.992642 3.500141 0.000000
vt 4.357649 2.151539 0.000000
vt 4.425189 2.239559 0.000000
vt 4.645648 2.944934 0.000000
vt 4.513210 2.307099 0.000000
vt 4.615712 2.349557 0.000000
vt 4.725710 2.364039 0.000000
vt 4.835708 2.349557 0.000000
vt 4.938210 2.307099 0.000000
vt 5.026230 2.239559 0.000000
vt 5.093771 2.151539 0.000000
vt -4.645648 -2.944934 0.000000
vt -4.561790 -2.229022 0.000000
vt -4.664292 -2.271480 0.000000
vt -4.774290 -2.285961 0.000000
vt -4.884288 -2.271480 0.000000
vt -5.221870 -2.310394 0.000000
vt -4.986790 -2.229022 0.000000
vt -5.074811 -2.161482 0.000000
vt -5.142351 -2.073461 0.000000
vt -5.184809 -1.970959 0.000000
vt -5.199290 -1.860961 0.000000
vt -5.221870 2.265358 0.000000
vt -5.184809 -1.750963 0.000000
vt -5.142351 -1.648461 0.000000
vt -5.074811 -1.560441 0.000000
vt -4.986790 -1.492901 0.000000
vt -4.884288 -1.450443 0.000000
vt -4.774290 -1.435961 0.000000
vt -4.664292 -1.450443 0.000000
vt -4.561790 -1.492901 0.000000
vt -4.651142 2.904843 0.000000
vt -4.473770 -1.560441 0.000000
vt -4.002948 3.465662 0.000000
vt -3.288043 3.938508 0.000000
vt -2.518288 4.315536 0.000000
vt -1.706455 4.590490 0.000000
vt 2.000000 11.703347 0.000000
vt 1.330703 11.703347 0.000000
vt 2.000000 10.845623 0.000000
vt 1.330703 10.845623 0.000000
vt 2.000000 9.987899 0.000000
vt 1.330703 9.987899 0.000000
vt 2.000000 9.130175 0.000000
vt 1.330703 9.130175 0.000000
vt 2.000000 8.272451 0.000000
vt 1.330703 8.272451 0.000000
vt 2.000000 7.414727 0.000000
vt 1.330703 7.414727 0.000000
vt 2.000000 6.557003 0.000000
vt 1.330703 6.557003 0.000000
vt 2.000000 5.699279 0.000000
vt 1.330703 5.699279 0.000000
vt 2.000000 4.841555 0.000000
vt 1.330703 4.841555 0.000000
vt 2.000000 3.983831 0.000000
vt 1.330703 3.983831 0.000000
vt 2.000000 3.126106 0.000000
vt 1.330703 3.126106 0.000000
vt 2.000000 2.268382 0.000000
vt 1.330703 2.268382 0.000000
vt 2.000000 1.410658 0.000000
vt 1.330703 1.410658 0.000000
vt 2.000000 0.552934 0.000000
vt 1.330703 0.552934 0.000000
vt 2.000000 -0.304790 0.000000
vt 1.330703 -0.304790 0.000000
vt 4.285857 -1.330703 0.000000
vt -0.289895 -1.330703 0.000000
vt 4.285857 -2.000000 0.000000
vt -0.289895 -2.000000 0.000000
vn 0.965926 -0.258819 -0.000000
vn 0.965926 -0.258819 -0.000000
vn 1.000000 0.000000 -0.000000
vn 1.000000 -0.000000 -0.000000
vn 0.965926 0.258819 -0.000000
vn 0.965926 0.258819 -0.000000
vn 0.866025 0.500000 -0.000000
vn 0.866025 0.500000 -0.000000
vn 0.707107 0.707107 -0.000000
vn 0.707107 0.707107 -0.000000
vn 0.500000 0.866025 -0.000000
vn 0.500000 0.866025 -0.000000
vn 0.258819 0.965926 -0.000000
vn 0.258819 0.965926 -0.000000
vn 0.000000 1.000000 0.000000
vn 0.000000 1.000000 0.000000
vn -0.258819 0.965926 0.000000
vn -0.258819 0.965926 0.000000
vn -0.500000 0.866025 0.000000
vn -0.500000 0.866025 0.000000
vn -0.707107 0.707107 0.000000
vn -0.707107 0.707107 0.000000
vn -0.866025 0.500000 0.000000
vn -0.866025 0.500000 0.000000
vn -0.965926 0.258819 0.000000
vn -0.965926 0.258819 0.000000
vn -1.000000 0.000000 0.000000
vn -1.000000 0.000000 0.000000
vn -0.965926 -0.258819 0.000000
vn -0.965926 -0.258819 0.000000
vn -0.866025 -0.500000 0.000000
vn -0.866025 -0.500000 0.000000
vn -0.707107 -0.707107 0.000000
vn -0.707107 -0.707107 0.000000
vn -0.500000 -0.866025 0.000000
vn -0.500000 -0.866025 0.000000
vn -0.258819 -0.965926 0.000000
vn -0.258819 -0.965926 0.000000
vn 0.000000 -1.000000 -0.000000
vn 0.000000 -1.000000 -0.000000
vn 0.258819 -0.965926 -0.000000
vn 0.258819 -0.965926 -0.000000
vn 0.500000 -0.866025 -0.000000
vn 0.500000 -0.866025 -0.000000
vn 0.707107 -0.707107 -0.000000
vn 0.707107 -0.707107 -0.000000
vn 0.866025 -0.500000 -0.000000
vn 0.866025 -0.500000 -0.000000
vn -0.000000 0.000000 -1.000000
vn -0.000000 0.000000 -1.000000
vn -0.000000 0.000000 -1.000000
vn -0.000000 0.000000 -1.000000
vn -0.000000 0.000000 -1.000000
vn -0.000000 0.000000 -1.000000
vn -0.000000 0.000000 -1.000000
vn -0.000000 0.000000 -1.000000
vn -0.000000 0.000000 -1.000000
vn -0.000000 0.000000 -1.000000
vn -0.000000 0.000000 -1.000000
vn -0.000000 0.000000 -1.000000
vn -0.000000 0.000000 -1.000000
vn -0.000000 0.000000 -1.000000
vn -0.000000 0.000000 -1.000000
vn -0.000000 0.000000 -1.000000
vn -0.000000 0.000000 -1.000000
vn -0.000000 0.000000 -1.000000
vn -0.000000 0.000000 -1.000000
vn -0.000000 0.000000 -1.000000
vn -0.000000 0.000000 -1.000000
vn -0.000000 0.000000 -1.000000
vn -0.000000 0.000000 -1.000000
vn -0.000000 0.000000 -1.000000
vn 0.965926 -0.258819 -0.000000
vn 0.965926 -0.258819 -0.000000
vn 1.000000 0.000000 -0.000000
vn 1.000000 -0.000000 -0.000000
vn 0.965926 0.258819 -0.000000
vn 0.965926 0.258819 -0.000000
vn 0.866025 0.500000 -0.000000
vn 0.866025 0.500000 -0.000000
vn 0.707107 0.707107 -0.000000
vn 0.707107 0.707107 -0.000000
vn 0.500000 0.866025 -0.000000
vn 0.500000 0.866025 -0.000000
vn 0.258819 0.965926 -0.000000
vn 0.258819 0.965926 -0.000000
vn 0.000000 1.000000 0.000000
vn 0.000000 1.000000 0.000000
vn -0.258819 0.965926 0.000000
vn -0.258819 0.965926 0.000000
vn -0.500000 0.866025 0.000000
vn -0.500000 0.866025 0.000000
vn -0.707107 0.707107 0.000000
vn -0.707107 0.707107 0.000000
vn -0.866025 0.500000 0.000000
vn -0.866025 0.500000 0.000000
vn -0.965926 0.258819 0.000000
vn -0.965926 0.258819 0.000000
vn -1.000000 0.000000 0.000000
vn -1.000000 0.000000 0.000000
vn -0.965926 -0.258819 0.000000
vn -0.965926 -0.258819 0.000000
vn -0.866025 -0.500000 0.000000
vn -0.866025 -0.500000 0.000000
vn -0.707107 -0.707107 0.000000
vn -0.707107 -0.707107 0.000000
vn -0.500000 -0.866025 0.000000
vn -0.500000 -0.866025 0.000000
vn -0.258819 -0.965926 0.000000
vn -0.258819 -0.965926 0.000000
vn 0.000000 -1.000000 -0.000000
vn 0.000000 -1.000000 -0.000000
vn 0.258819 -0.965926 -0.000000
vn 0.258819 -0.965926 -0.000000
vn 0.500000 -0.866025 -0.000000
vn 0.500000 -0.866025 -0.000000
vn 0.707107 -0.707107 -0.000000
vn 0.707107 -0.707107 -0.000000
vn 0.866025 -0.500000 -0.000000
vn 0.866025 -0.500000 -0.000000
vn -0.000000 0.000000 -1.000000
vn -0.000000 0.000000 -1.000000
vn -0.000000 0.000000 -1.000000
vn -0.000000 0.000000 -1.000000
vn -0.000000 0.000000 -1.000000
vn -0.000000 0.000000 -1.000000
vn -0.000000 0.000000 -1.000000
vn -0.000000 0.000000 -1.000000
vn -0.000000 0.000000 -1.000000
vn -0.000000 0.000000 -1.000000
vn -0.000000 0.000000 -1.000000
vn -0.000000 0.000000 -1.000000
vn -0.000000 0.000000 -1.000000
vn -0.000000 0.000000 -1.000000
vn -0.000000 0.000000 -1.000000
vn -0.000000 0.000000 -1.000000
vn -0.000000 0.000000 -1.000000
vn -0.000000 0.000000 -1.000000
vn -0.000000 0.000000 -1.000000
vn -0.000000 0.000000 -1.000000
vn -0.000000 0.000000 -1.000000
vn -0.000000 0.000000 -1.000000
vn -0.000000 0.000000 -1.000000
vn -0.000000 0.000000 -1.000000
vn -1.000000 0.000000 0.000000
vn -1.000000 0.000000 0.000000
vn -1.000000 0.000000 0.000000
vn -1.000000 0.000000 0.000000
vn -0.724409 0.689371 0.000000
vn -0.724409 0.689371 0.000000
vn -0.628292 0.777977 0.000000
vn -0.628292 0.777977 0.000000
vn -0.521439 0.853289 0.000000
vn -0.521439 0.853289 0.000000
vn -0.405674 0.914018 0.000000
vn -0.405674 0.914018 0.000000
vn -0.282977 0.959127 0.000000
vn -0.282977 0.959127 0.000000
vn -0.155443 0.987845 0.000000
vn -0.155443 0.987845 0.000000
vn -0.025253 0.999681 0.000000
vn -0.025253 0.999681 0.000000
vn 0.105368 0.994433 -0.000000
vn 0.105368 0.994433 -0.000000
vn 0.234189 0.972191 -0.000000
vn 0.234189 0.972191 -0.000000
vn 0.359007 0.933335 -0.000000
vn 0.359007 0.933335 -0.000000
vn 0.477690 0.878528 -0.000000
vn 0.477690 0.878528 -0.000000
vn 0.588210 0.808708 -0.000000
vn 0.588210 0.808708 -0.000000
vn 0.688678 0.725068 -0.000000
vn 0.688678 0.725068 -0.000000
vn 0.777376 0.629036 -0.000000
vn 0.777376 0.629036 -0.000000
vn 0.713329 -0.700829 -0.000000
vn 0.713329 -0.700829 -0.000000
vn 0.616779 -0.787137 -0.000000
vn 0.616779 -0.787137 -0.000000
vn 0.509884 -0.860243 -0.000000
vn 0.509884 -0.860243 -0.000000
vn 0.394438 -0.918923 -0.000000
vn 0.394438 -0.918923 -0.000000
vn 0.272376 -0.962191 -0.000000
vn 0.272376 -0.962191 -0.000000
vn 0.145747 -0.989322 -0.000000
vn 0.145747 -0.989322 -0.000000
vn 0.016673 -0.999861 -0.000000
vn 0.016673 -0.999861 -0.000000
vn -0.112680 -0.993631 0.000000
vn -0.112680 -0.993631 0.000000
vn -0.240144 -0.970737 0.000000
vn -0.240144 -0.970737 0.000000
vn -0.363580 -0.931563 0.000000
vn -0.363580 -0.931563 0.000000
vn -0.480918 -0.876765 0.000000
vn -0.480918 -0.876765 0.000000
vn -0.590191 -0.807263 0.000000
vn -0.590191 -0.807263 0.000000
vn -0.689566 -0.724223 0.000000
vn -0.689566 -0.724223 0.000000
vn -0.777376 -0.629036 0.000000
vn -0.777376 -0.629036 0.000000
vn 1.000000 -0.000000 -0.000000
vn 1.000000 -0.000000 -0.000000
vn 1.000000 -0.000000 -0.000000
vn 1.000000 -0.000000 -0.000000
vn 0.250341 0.968158 -0.000000
vn 0.250341 0.968158 -0.000000
vn 0.476859 0.878980 -0.000000
vn 0.476859 0.878980 -0.000000
vn 0.675117 0.737711 -0.000000
vn 0.675117 0.737711 -0.000000
vn 0.833366 0.552722 -0.000000
vn 0.833366 0.552722 -0.000000
vn 0.942226 0.334978 -0.000000
vn 0.942226 0.334978 -0.000000
vn 0.995247 0.097381 -0.000000
vn 0.995247 0.097381 -0.000000
vn 0.989287 -0.145986 -0.000000
vn 0.989287 -0.145986 -0.000000
vn 0.924698 -0.380702 -0.000000
vn 0.924698 -0.380702 -0.000000
vn 0.805308 -0.592856 -0.000000
vn 0.805308 -0.592856 -0.000000
vn 0.638194 -0.769876 -0.000000
vn 0.638194 -0.769876 -0.000000
vn 0.433257 -0.901270 -0.000000
vn 0.433257 -0.901270 -0.000000
vn 0.202645 -0.979252 -0.000000
vn 0.202645 -0.979252 -0.000000
vn -0.039977 -0.999201 0.000000
vn -0.039977 -0.999201 0.000000
vn -0.280229 -0.959933 0.000000
vn -0.280229 -0.959933 0.000000
vn -0.219170 -0.975687 0.000000
vn -0.219170 -0.975687 0.000000
vn -0.463598 -0.886046 0.000000
vn -0.463598 -0.886046 0.000000
vn -0.676603 -0.736348 0.000000
vn -0.676603 -0.736348 0.000000
vn -0.843747 -0.536741 0.000000
vn -0.843747 -0.536741 0.000000
vn -0.953702 -0.300753 0.000000
vn -0.953702 -0.300753 0.000000
vn -0.999015 -0.044380 0.000000
vn -0.999015 -0.044380 0.000000
vn -0.976614 0.215001 0.000000
vn -0.976614 0.215001 0.000000
vn -0.888017 0.459810 0.000000
vn -0.888017 0.459810 0.000000
vn -0.739231 0.673452 0.000000
vn -0.739231 0.673452 0.000000
vn -0.540339 0.841447 0.000000
vn -0.540339 0.841447 0.000000
vn -0.304823 0.952409 0.000000
vn -0.304823 0.952409 0.000000
vn -0.048646 0.998816 0.000000
vn -0.048646 0.998816 0.000000
vn 0.210829 0.977523 -0.000000
vn 0.210829 0.977523 -0.000000
vn 0.000000 -0.000000 1.000000
vn 0.000000 -0.000000 1.000000
vn 0.000000 -0.000000 1.000000
vn 0.000000 -0.000000 1.000000
vn 0.000000 -0.000000 1.000000
vn 0.000000 -0.000000 1.000000
vn 0.000000 -0.000000 1.000000
vn 0.000000 -0.000000 1.000000
vn 0.000000 -0.000000 1.000000
vn 0.000000 -0.000000 1.000000
vn 0.000000 -0.000000 1.000000
vn 0.000000 -0.000000 1.000000
vn 0.000000 -0.000000 1.000000
vn 0.000000 -0.000000 1.000000
vn 0.000000 -0.000000 1.000000
vn 0.000000 -0.000000 1.000000
vn 0.000000 -0.000000 1.000000
vn 0.000000 -0.000000 1.000000
vn 0.000000 -0.000000 1.000000
vn 0.000000 -0.000000 1.000000
vn 0.000000 -0.000000 1.000000
vn 0.000000 -0.000000 1.000000
vn 0.000000 -0.000000 1.000000
vn 0.000000 -0.000000 1.000000
vn 0.000000 -0.000000 1.000000
vn 0.000000 -0.000000 1.000000
vn 0.000000 -0.000000 1.000000
vn 0.000000 -0.000000 1.000000
vn 0.000000 -0.000000 1.000000
vn 0.000000 -0.000000 1.000000
vn 0.000000 -0.000000 1.000000
vn 0.000000 -0.000000 1.000000
vn 0.000000 -0.000000 1.000000
vn 0.000000 -0.000000 1.000000
vn 0.000000 -0.000000 1.000000
vn 0.000000 -0.000000 1.000000
vn 0.000000 -0.000000 1.000000
vn 0.000000 -0.000000 1.000000
vn 0.000000 -0.000000 1.000000
vn 0.000000 -0.000000 1.000000
vn 0.000000 -0.000000 1.000000
vn 0.000000 -0.000000 1.000000
vn 0.000000 -0.000000 1.000000
vn 0.000000 -0.000000 1.000000
vn 0.000000 -0.000000 1.000000
vn 0.000000 -0.000000 1.000000
vn 0.000000 -0.000000 1.000000
vn 0.000000 -0.000000 1.000000
vn 0.000000 -0.000000 1.000000
vn 0.000000 -0.000000 1.000000
vn 0.000000 -0.000000 1.000000
vn 0.000000 -0.000000 1.000000
vn 0.000000 -0.000000 1.000000
vn 0.000000 -0.000000 1.000000
vn 0.000000 -0.000000 1.000000
vn 0.000000 -0.000000 1.000000
vn 0.000000 -0.000000 1.000000
vn 0.000000 -0.000000 1.000000
vn 0.000000 -0.000000 1.000000
vn 0.000000 -0.000000 1.000000
vn 0.000000 -0.000000 1.000000
vn 0.000000 -0.000000 1.000000
vn 0.000000 -0.000000 1.000000
vn 0.000000 -0.000000 1.000000
vn 0.000000 -0.000000 1.000000
vn 0.000000 -0.000000 1.000000
vn 0.000000 -0.000000 1.000000
vn 0.000000 -0.000000 1.000000
vn 0.000000 -0.000000 1.000000
vn 0.000000 -0.000000 1.000000
vn 0.000000 -0.000000 1.000000
vn 0.000000 -0.000000 1.000000
vn 0.000000 -0.000000 1.000000
vn 0.000000 -0.000000 1.000000
vn 0.000000 -0.000000 1.000000
vn 0.000000 -0.000000 1.000000
vn 0.000000 -0.000000 1.000000
vn 0.000000 -0.000000 1.000000
vn 0.000000 -0.000000 1.000000
vn 0.000000 -0.000000 1.000000
vn 0.000000 -0.000000 1.000000
vn 0.000000 -0.000000 1.000000
vn 0.000000 -0.000000 1.000000
vn 0.000000 -0.000000 1.000000
vn 0.000000 -0.000000 1.000000
vn 0.000000 -0.000000 1.000000
vn 0.000000 -0.000000 1.000000
vn 0.000000 -0.000000 1.000000
vn 0.000000 -0.000000 1.000000
vn 0.000000 -0.000000 1.000000
vn 0.000000 -0.000000 1.000000
vn 0.000000 -0.000000 1.000000
vn 0.000000 -0.000000 1.000000
vn 0.000000 -0.000000 1.000000
vn 0.000000 -0.000000 1.000000
vn 0.000000 -0.000000 1.000000
vn 0.000000 -0.000000 1.000000
vn 0.000000 -0.000000 1.000000
vn 0.000000 -0.000000 1.000000
vn 0.000000 -0.000000 1.000000
vn 0.000000 -0.000000 1.000000
vn 0.000000 -0.000000 1.000000
vn 0.000000 -0.000000 1.000000
vn 0.000000 -0.000000 1.000000
vn 0.000000 -0.000000 1.000000
vn 0.000000 -0.000000 1.000000
vn 0.000000 -0.000000 1.000000
vn 0.000000 -0.000000 1.000000
vn 0.000000 -0.000000 1.000000
vn 0.000000 -0.000000 1.000000
vn 0.000000 -0.000000 1.000000
vn 0.000000 -0.000000 1.000000
vn 0.000000 -0.000000 1.000000
vn 0.000000 -0.000000 1.000000
vn 0.000000 -0.000000 1.000000
vn 0.000000 -0.000000 1.000000
vn 0.000000 -0.000000 1.000000
vn 0.000000 -0.000000 1.000000
vn 0.000000 -0.000000 1.000000
vn 0.000000 -0.000000 1.000000
vn 0.000000 -0.000000 1.000000
vn 0.000000 -0.000000 1.000000
vn 0.000000 -0.000000 1.000000
vn 0.000000 -0.000000 1.000000
vn 0.000000 -0.000000 1.000000
vn 0.000000 -0.000000 1.000000
vn 0.000000 -0.000000 1.000000
vn 0.000000 -0.000000 1.000000
vn 0.000000 -0.000000 1.000000
vn 0.000000 -0.000000 1.000000
vn 0.000000 -0.000000 1.000000
vn 0.000000 -0.000000 1.000000
vn 0.000000 -0.000000 1.000000
vn 0.000000 -0.000000 1.000000
vn 0.000000 -0.000000 1.000000
vn 0.000000 -0.000000 1.000000
vn 0.782067 -0.623194 -0.000000
vn 0.782067 -0.623194 -0.000000
vn 0.695473 -0.718552 -0.000000
vn 0.695473 -0.718552 -0.000000
vn 0.597339 -0.801989 -0.000000
vn 0.597339 -0.801989 -0.000000
vn 0.489295 -0.872118 -0.000000
vn 0.489295 -0.872118 -0.000000
vn 0.373132 -0.927778 -0.000000
vn 0.373132 -0.927778 -0.000000
vn 0.250779 -0.968044 -0.000000
vn 0.250779 -0.968044 -0.000000
vn 0.124264 -0.992249 -0.000000
vn 0.124264 -0.992249 -0.000000
vn -0.004312 -0.999991 0.000000
vn -0.004312 -0.999991 0.000000
vn -0.132817 -0.991141 0.000000
vn -0.132817 -0.991141 0.000000
vn -0.259118 -0.965846 0.000000
vn -0.259118 -0.965846 0.000000
vn -0.381120 -0.924526 0.000000
vn -0.381120 -0.924526 0.000000
vn -0.496798 -0.867866 0.000000
vn -0.496798 -0.867866 0.000000
vn -0.604234 -0.796807 0.000000
vn -0.604234 -0.796807 0.000000
vn -0.701644 -0.712527 0.000000
vn -0.701644 -0.712527 0.000000
vn -0.787413 -0.616426 0.000000
vn -0.787413 -0.616426 0.000000
vn -1.000000 0.000000 0.000000
vn -1.000000 0.000000 0.000000
vn -1.000000 0.000000 0.000000
vn -1.000000 0.000000 0.000000
vn -0.000000 0.000000 -1.000000
vn -0.000000 0.000000 -1.000000
vn -0.000000 0.000000 -1.000000
vn -0.000000 0.000000 -1.000000
vn -0.000000 0.000000 -1.000000
vn -0.000000 0.000000 -1.000000
vn -0.000000 0.000000 -1.000000
vn -0.000000 0.000000 -1.000000
vn -0.000000 0.000000 -1.000000
vn -0.000000 0.000000 -1.000000
vn -0.000000 0.000000 -1.000000
vn -0.000000 0.000000 -1.000000
vn -0.000000 0.000000 -1.000000
vn -0.000000 0.000000 -1.000000
vn -0.000000 0.000000 -1.000000
vn -0.000000 0.000000 -1.000000
vn -0.000000 0.000000 -1.000000
vn -0.000000 0.000000 -1.000000
vn -0.000000 0.000000 -1.000000
vn -0.000000 0.000000 -1.000000
vn -0.000000 0.000000 -1.000000
vn -0.000000 0.000000 -1.000000
vn -0.000000 0.000000 -1.000000
vn -0.000000 0.000000 -1.000000
vn -0.000000 0.000000 -1.000000
vn -0.000000 0.000000 -1.000000
vn -0.000000 0.000000 -1.000000
vn -0.000000 0.000000 -1.000000
vn -0.000000 0.000000 -1.000000
vn -0.000000 0.000000 -1.000000
vn -0.000000 0.000000 -1.000000
vn -0.000000 0.000000 -1.000000
vn -0.000000 0.000000 -1.000000
vn -0.000000 0.000000 -1.000000
vn -0.000000 0.000000 -1.000000
vn -0.000000 0.000000 -1.000000
vn -0.000000 0.000000 -1.000000
vn -0.000000 0.000000 -1.000000
vn -0.000000 0.000000 -1.000000
vn -0.000000 0.000000 -1.000000
vn -0.000000 0.000000 -1.000000
vn -0.000000 0.000000 -1.000000
vn -0.000000 0.000000 -1.000000
vn -0.000000 0.000000 -1.000000
vn -0.000000 0.000000 -1.000000
vn -0.000000 0.000000 -1.000000
vn -0.000000 0.000000 -1.000000
vn -0.000000 0.000000 -1.000000
vn -0.000000 0.000000 -1.000000
vn -0.000000 0.000000 -1.000000
vn -0.000000 0.000000 -1.000000
vn -0.000000 0.000000 -1.000000
vn -0.000000 0.000000 -1.000000
vn -0.000000 0.000000 -1.000000
vn -0.000000 0.000000 -1.000000
vn -0.000000 0.000000 -1.000000
vn -0.000000 0.000000 -1.000000
vn -0.000000 0.000000 -1.000000
vn -0.000000 0.000000 -1.000000
vn -0.000000 0.000000 -1.000000
vn -0.000000 0.000000 -1.000000
vn -0.000000 0.000000 -1.000000
vn -0.000000 0.000000 -1.000000
vn -0.000000 0.000000 -1.000000
vn -0.000000 0.000000 -1.000000
vn -0.000000 0.000000 -1.000000
vn -0.000000 0.000000 -1.000000
vn -0.000000 0.000000 -1.000000
vn -0.000000 0.000000 -1.000000
vn -0.000000 0.000000 -1.000000
vn -0.000000 0.000000 -1.000000
vn -0.000000 0.000000 -1.000000
vn -0.000000 0.000000 -1.000000
vn -0.000000 0.000000 -1.000000
vn -0.000000 0.000000 -1.000000
vn -0.000000 0.000000 -1.000000
vn -0.000000 0.000000 -1.000000
vn -0.000000 0.000000 -1.000000
vn -0.782067 0.623194 0.000000
vn -0.782067 0.623194 0.000000
vn -0.695473 0.718552 0.000000
vn -0.695473 0.718552 0.000000
vn -0.597339 0.801989 0.000000
vn -0.597339 0.801989 0.000000
vn -0.489295 0.872118 0.000000
vn -0.489295 0.872118 0.000000
vn -0.373132 0.927778 0.000000
vn -0.373132 0.927778 0.000000
vn -0.250779 0.968044 0.000000
vn -0.250779 0.968044 0.000000
vn -0.124264 0.992249 0.000000
vn -0.124264 0.992249 0.000000
vn 0.004312 0.999991 -0.000000
vn 0.004312 0.999991 -0.000000
vn 0.132817 0.991141 -0.000000
vn 0.132817 0.991141 -0.000000
vn 0.259118 0.965846 -0.000000
vn 0.259118 0.965846 -0.000000
vn 0.381120 0.924526 -0.000000
vn 0.381120 0.924526 -0.000000
vn 0.496798 0.867866 -0.000000
vn 0.496798 0.867866 -0.000000
vn 0.604234 0.796807 -0.000000
vn 0.604234 0.796807 -0.000000
vn 0.701644 0.712527 -0.000000
vn 0.701644 0.712527 -0.000000
vn 0.787413 0.616426 -0.000000
vn 0.787413 0.616426 -0.000000
vn 1.000000 -0.000000 -0.000000
vn 1.000000 -0.000000 -0.000000
vn 1.000000 -0.000000 -0.000000
vn 1.000000 -0.000000 -0.000000
usemtl HP_3D_HR_CB_PA_12_(with_HP_Jet_Fusion_580_Color_3D_Printer)
f 2/1/1 48/2/2 1/3/3
f 1/3/3 48/2/2 25/4/4
f 1/3/3 25/4/4 24/5/5
f 24/5/5 25/4/4 26/6/6
f 24/5/5 26/6/6 23/7/7
f 23/7/7 26/6/6 27/8/8
f 23/7/7 27/8/8 22/9/9
f 22/9/9 27/8/8 28/10/10
f 22/9/9 28/10/10 21/11/11
f 21/11/11 28/10/10 29/12/12
f 21/11/11 29/12/12 20/13/13
f 20/13/13 29/12/12 30/14/14
f 20/13/13 30/14/14 19/15/15
f 19/15/15 30/14/14 31/16/16
f 19/15/15 31/16/16 18/17/17
f 18/17/17 31/16/16 32/18/18
f 18/17/17 32/18/18 17/19/19
f 17/19/19 32/18/18 33/20/20
f 17/19/19 33/20/20 16/21/21
f 16/21/21 33/20/20 34/22/22
f 16/21/21 34/22/22 15/23/23
f 15/23/23 34/22/22 35/24/24
f 15/23/23 35/24/24 14/25/25
f 14/25/25 35/24/24 36/26/26
f 14/25/25 36/26/26 13/27/27
f 13/27/27 36/26/26 37/28/28
f 13/29/27 37/30/28 12/31/29
f 12/31/29 37/30/28 38/32/30
f 12/31/29 38/32/30 11/33/31
f 11/33/31 38/32/30 39/34/32
f 11/33/31 39/34/32 10/35/33
f 10/35/33 39/34/32 40/36/34
f 10/35/33 40/36/34 9/37/35
f 9/37/35 40/36/34 41/38/36
f 9/37/35 41/38/36 8/39/37
f 8/39/37 41/38/36 42/40/38
f 8/39/37 42/40/38 7/41/39
f 7/41/39 42/40/38 43/42/40
f 7/41/39 43/42/40 6/43/41
f 6/43/41 43/42/40 44/44/42
f 6/43/41 44/44/42 5/45/43
f 5/45/43 44/44/42 45/46/44
f 5/45/43 45/46/44 4/47/45
f 4/47/45 45/46/44 46/48/46
f 4/47/45 46/48/46 3/49/47
f 3/49/47 46/48/46 47/50/48
f 3/49/47 47/50/48 2/1/1
f 2/1/1 47/50/48 48/2/2
f 48/51/49 38/52/50 25/53/51
f 25/53/51 38/52/50 37/54/52
f 25/53/51 37/54/52 26/55/53
f 26/55/53 37/54/52 36/56/54
f 26/55/53 36/56/54 27/57/55
f 27/57/55 36/56/54 35/58/56
f 27/57/55 35/58/56 28/59/57
f 28/59/57 35/58/56 34/60/58
f 28/59/57 34/60/58 29/61/59
f 29/61/59 34/60/58 33/62/60
f 29/61/59 33/62/60 30/63/61
f 30/63/61 33/62/60 32/64/62
f 30/63/61 32/64/62 31/65/63
f 38/52/50 48/51/49 39/66/64
f 39/66/64 48/51/49 47/67/65
f 39/66/64 47/67/65 40/68/66
f 40/68/66 47/67/65 46/69/67
f 40/68/66 46/69/67 41/70/68
f 41/70/68 46/69/67 45/71/69
f 41/70/68 45/71/69 42/72/70
f 42/72/70 45/71/69 44/73/71
f 42/72/70 44/73/71 43/74/72
f 50/75/73 96/76/74 49/77/75
f 49/77/75 96/76/74 73/78/76
f 49/77/75 73/78/76 72/79/77
f 72/79/77 73/78/76 74/80/78
f 72/79/77 74/80/78 71/81/79
f 71/81/79 74/80/78 75/82/80
f 71/81/79 75/82/80 70/83/81
f 70/83/81 75/82/80 76/84/82
f 70/83/81 76/84/82 69/85/83
f 69/85/83 76/84/82 77/86/84
f 69/85/83 77/86/84 68/87/85
f 68/87/85 77/86/84 78/88/86
f 68/87/85 78/88/86 67/89/87
f 67/89/87 78/88/86 79/90/88
f 67/89/87 79/90/88 66/91/89
f 66/91/89 79/90/88 80/92/90
f 66/91/89 80/92/90 65/93/91
f 65/93/91 80/92/90 81/94/92
f 65/93/91 81/94/92 64/95/93
f 64/95/93 81/94/92 82/96/94
f 64/95/93 82/96/94 63/97/95
f 63/97/95 82/96/94 83/98/96
f 63/97/95 83/98/96 62/99/97
f 62/99/97 83/98/96 84/100/98
f 62/99/97 84/100/98 61/101/99
f 61/101/99 84/100/98 85/102/100
f 61/103/99 85/104/100 60/105/101
f 60/105/101 85/104/100 86/106/102
f 60/105/101 86/106/102 59/107/103
f 59/107/103 86/106/102 87/108/104
f 59/107/103 87/108/104 58/109/105
f 58/109/105 87/108/104 88/110/106
f 58/109/105 88/110/106 57/111/107
f 57/111/107 88/110/106 89/112/108
f 57/111/107 89/112/108 56/113/109
f 56/113/109 89/112/108 90/114/110
f 56/113/109 90/114/110 55/115/111
f 55/115/111 90/114/110 91/116/112
f 55/115/111 91/116/112 54/117/113
f 54/117/113 91/116/112 92/118/114
f 54/117/113 92/118/114 53/119/115
f 53/119/115 92/118/114 93/120/116
f 53/119/115 93/120/116 52/121/117
f 52/121/117 93/120/116 94/122/118
f 52/121/117 94/122/118 51/123/119
f 51/123/119 94/122/118 95/124/120
f 51/123/119 95/124/120 50/75/73
f 50/75/73 95/124/120 96/76/74
f 96/125/121 86/126/122 73/127/123
f 73/127/123 86/126/122 85/128/124
f 73/127/123 85/128/124 74/129/125
f 74/129/125 85/128/124 84/130/126
f 74/129/125 84/130/126 75/131/127
f 75/131/127 84/130/126 83/132/128
f 75/131/127 83/132/128 76/133/129
f 76/133/129 83/132/128 82/134/130
f 76/133/129 82/134/130 77/135/131
f 77/135/131 82/134/130 81/136/132
f 77/135/131 81/136/132 78/137/133
f 78/137/133 81/136/132 80/138/134
f 78/137/133 80/138/134 79/139/135
f 86/126/122 96/125/121 87/140/136
f 87/140/136 96/125/121 95/141/137
f 87/140/136 95/141/137 88/142/138
f 88/142/138 95/141/137 94/143/139
f 88/142/138 94/143/139 89/144/140
f 89/144/140 94/143/139 93/145/141
f 89/144/140 93/145/141 90/146/142
f 90/146/142 93/145/141 92/147/143
f 90/146/142 92/147/143 91/148/144
f 98/149/145 99/150/146 97/151/147
f 97/151/147 99/150/146 100/152/148
f 101/153/149 102/154/150 128/155/151
f 128/155/151 102/154/150 103/156/152
f 128/155/151 103/156/152 127/157/153
f 127/157/153 103/156/152 104/158/154
f 127/157/153 104/158/154 126/159/155
f 126/159/155 104/158/154 105/160/156
f 126/159/155 105/160/156 125/161/157
f 125/161/157 105/160/156 106/162/158
f 125/161/157 106/162/158 124/163/159
f 124/163/159 106/162/158 107/164/160
f 124/163/159 107/164/160 123/165/161
f 123/165/161 107/164/160 108/166/162
f 123/165/161 108/166/162 122/167/163
f 122/167/163 108/166/162 109/168/164
f 122/167/163 109/168/164 121/169/165
f 121/169/165 109/168/164 110/170/166
f 121/169/165 110/170/166 120/171/167
f 120/171/167 110/170/166 111/172/168
f 120/171/167 111/172/168 119/173/169
f 119/173/169 111/172/168 112/174/170
f 119/173/169 112/174/170 118/175/171
f 118/175/171 112/174/170 113/176/172
f 118/175/171 113/176/172 117/177/173
f 117/177/173 113/176/172 114/178/174
f 117/177/173 114/178/174 116/179/175
f 116/179/175 114/178/174 115/180/176
f 129/181/177 130/182/178 154/183/179
f 154/183/179 130/182/178 131/184/180
f 154/183/179 131/184/180 153/185/181
f 153/185/181 131/184/180 132/186/182
f 153/185/181 132/186/182 152/187/183
f 152/187/183 132/186/182 133/188/184
f 152/187/183 133/188/184 151/189/185
f 151/189/185 133/188/184 134/190/186
f 151/189/185 134/190/186 150/191/187
f 150/191/187 134/190/186 135/192/188
f 150/191/187 135/192/188 149/193/189
f 149/193/189 135/192/188 136/194/190
f 149/193/189 136/194/190 148/195/191
f 148/195/191 136/194/190 137/196/192
f 148/195/191 137/196/192 147/197/193
f 147/197/193 137/196/192 138/198/194
f 147/197/193 138/198/194 146/199/195
f 146/199/195 138/198/194 139/200/196
f 146/199/195 139/200/196 145/201/197
f 145/201/197 139/200/196 140/202/198
f 145/201/197 140/202/198 144/203/199
f 144/203/199 140/202/198 141/204/200
f 144/203/199 141/204/200 143/205/201
f 143/205/201 141/204/200 142/206/202
f 143/205/201 142/206/202 99/207/203
f 99/207/203 142/206/202 100/208/204
f 156/209/205 116/210/206 155/211/207
f 155/211/207 116/210/206 115/212/208
f 130/213/209 129/214/210 180/215/211
f 180/215/211 129/214/210 157/216/212
f 180/215/211 157/216/212 179/217/213
f 179/217/213 157/216/212 158/218/214
f 179/217/213 158/218/214 178/219/215
f 178/219/215 158/218/214 159/220/216
f 178/219/215 159/220/216 177/221/217
f 177/221/217 159/220/216 160/222/218
f 177/221/217 160/222/218 176/223/219
f 176/223/219 160/222/218 161/224/220
f 176/223/219 161/224/220 175/225/221
f 175/225/221 161/224/220 162/226/222
f 175/225/221 162/226/222 174/227/223
f 174/227/223 162/226/222 163/228/224
f 174/227/223 163/228/224 173/229/225
f 173/229/225 163/228/224 164/230/226
f 173/229/225 164/230/226 172/231/227
f 172/231/227 164/230/226 165/232/228
f 172/231/227 165/232/228 171/233/229
f 171/233/229 165/232/228 166/234/230
f 171/233/229 166/234/230 170/235/231
f 170/235/231 166/234/230 167/236/232
f 170/235/231 167/236/232 169/237/233
f 169/237/233 167/236/232 168/238/234
f 169/237/233 168/238/234 155/239/235
f 155/239/235 168/238/234 156/240/236
f 102/241/237 101/242/238 202/243/239
f 202/243/239 101/242/238 181/244/240
f 202/243/239 181/244/240 201/245/241
f 201/245/241 181/244/240 182/246/242
f 201/245/241 182/246/242 200/247/243
f 200/247/243 182/246/242 183/248/244
f 200/247/243 183/248/244 199/249/245
f 199/249/245 183/248/244 184/250/246
f 199/249/245 184/250/246 198/251/247
f 198/251/247 184/250/246 185/252/248
f 198/251/247 185/252/248 197/253/249
f 197/253/249 185/252/248 186/254/250
f 197/253/249 186/254/250 196/255/251
f 196/255/251 186/254/250 187/256/252
f 196/255/251 187/256/252 195/257/253
f 195/257/253 187/256/252 188/258/254
f 195/257/253 188/258/254 194/259/255
f 194/259/255 188/258/254 189/260/256
f 194/259/255 189/260/256 193/261/257
f 193/261/257 189/260/256 190/262/258
f 193/261/257 190/262/258 192/263/259
f 192/263/259 190/262/258 191/264/260
f 192/263/259 191/264/260 97/265/261
f 97/265/261 191/264/260 98/266/262
f 97/267/263 100/268/264 192/269/265
f 192/269/265 100/268/264 193/270/266
f 193/270/266 100/268/264 194/271/267
f 194/271/267 100/268/264 142/272/268
f 194/271/267 142/272/268 141/273/269
f 141/273/269 140/274/270 194/271/267
f 194/271/267 140/274/270 139/275/271
f 194/271/267 139/275/271 138/276/272
f 138/276/272 137/277/273 194/271/267
f 194/271/267 137/277/273 174/278/274
f 194/271/267 174/278/274 173/279/275
f 137/277/273 136/280/276 174/278/274
f 174/278/274 136/280/276 135/281/277
f 174/278/274 135/281/277 175/282/278
f 175/282/278 135/281/277 134/283/279
f 175/282/278 134/283/279 133/284/280
f 175/282/278 133/284/280 176/285/281
f 176/285/281 133/284/280 132/286/282
f 176/285/281 132/286/282 177/287/283
f 177/287/283 132/286/282 131/288/284
f 177/287/283 131/288/284 178/289/285
f 178/289/285 131/288/284 179/290/286
f 179/290/286 131/288/284 180/291/287
f 180/291/287 131/288/284 130/292/288
f 173/279/275 172/293/289 194/271/267
f 194/271/267 172/293/289 171/294/290
f 194/271/267 171/294/290 195/295/291
f 195/295/291 171/294/290 196/296/292
f 196/296/292 171/294/290 197/297/293
f 197/297/293 171/294/290 109/298/294
f 197/297/293 109/298/294 108/299/295
f 170/300/296 115/301/297 171/294/290
f 171/294/290 115/301/297 114/302/298
f 171/294/290 114/302/298 113/303/299
f 170/300/296 169/304/300 115/301/297
f 115/301/297 169/304/300 155/305/301
f 113/303/299 112/306/302 171/294/290
f 171/294/290 112/306/302 111/307/303
f 171/294/290 111/307/303 110/308/304
f 110/308/304 109/298/294 171/294/290
f 108/299/295 107/309/305 197/297/293
f 197/297/293 107/309/305 106/310/306
f 197/297/293 106/310/306 198/311/307
f 198/311/307 106/310/306 105/312/308
f 198/311/307 105/312/308 104/313/309
f 198/311/307 104/313/309 199/314/310
f 199/314/310 104/313/309 103/315/311
f 199/314/310 103/315/311 200/316/312
f 200/316/312 103/315/311 201/317/313
f 201/317/313 103/315/311 202/318/314
f 202/318/314 103/315/311 102/319/315
f 128/320/316 232/321/317 101/322/318
f 101/322/318 232/321/317 203/323/319
f 101/322/318 203/323/319 181/324/320
f 181/324/320 203/323/319 182/325/321
f 182/325/321 203/323/319 183/326/322
f 183/326/322 203/323/319 184/327/323
f 184/327/323 203/323/319 185/328/324
f 185/328/324 203/323/319 186/329/325
f 186/329/325 203/323/319 187/330/326
f 187/330/326 203/323/319 188/331/327
f 188/331/327 203/323/319 189/332/328
f 189/332/328 203/323/319 190/333/329
f 190/333/329 203/323/319 191/334/330
f 191/334/330 203/323/319 98/335/331
f 98/335/331 203/323/319 204/336/332
f 98/335/331 204/336/332 99/337/333
f 99/337/333 204/336/332 205/338/334
f 99/337/333 205/338/334 143/339/335
f 143/339/335 205/338/334 206/340/336
f 143/339/335 206/340/336 144/341/337
f 144/341/337 206/340/336 207/342/338
f 144/341/337 207/342/338 145/343/339
f 145/343/339 207/342/338 208/344/340
f 145/343/339 208/344/340 146/345/341
f 146/345/341 208/344/340 209/346/342
f 146/345/341 209/346/342 147/347/343
f 147/347/343 209/346/342 210/348/344
f 147/347/343 210/348/344 148/349/345
f 148/349/345 210/348/344 211/350/346
f 148/349/345 211/350/346 149/351/347
f 149/351/347 211/350/346 212/352/348
f 149/351/347 212/352/348 150/353/349
f 150/353/349 212/352/348 213/354/350
f 150/353/349 213/354/350 151/355/351
f 151/355/351 213/354/350 214/356/352
f 151/355/351 214/356/352 152/357/353
f 152/357/353 214/356/352 215/358/354
f 152/357/353 215/358/354 153/359/355
f 153/359/355 215/358/354 216/360/356
f 153/359/355 216/360/356 154/361/357
f 154/361/357 216/360/356 217/362/358
f 154/361/357 217/362/358 129/363/359
f 129/363/359 217/362/358 218/364/360
f 129/363/359 218/364/360 157/365/361
f 157/365/361 218/364/360 158/366/362
f 158/366/362 218/364/360 159/367/363
f 159/367/363 218/364/360 160/368/364
f 160/368/364 218/364/360 161/369/365
f 161/369/365 218/364/360 162/370/366
f 162/370/366 218/364/360 163/371/367
f 163/371/367 218/364/360 164/372/368
f 164/372/368 218/364/360 165/373/369
f 165/373/369 218/364/360 166/374/370
f 166/374/370 218/364/360 167/375/371
f 167/375/371 218/364/360 168/376/372
f 168/376/372 218/364/360 156/377/373
f 156/377/373 218/364/360 219/378/374
f 156/377/373 219/378/374 116/379/375
f 116/379/375 219/378/374 220/380/376
f 116/379/375 220/380/376 117/381/377
f 117/381/377 220/380/376 221/382/378
f 117/381/377 221/382/378 118/383/379
f 118/383/379 221/382/378 222/384/380
f 118/383/379 222/384/380 119/385/381
f 119/385/381 222/384/380 223/386/382
f 119/385/381 223/386/382 120/387/383
f 120/387/383 223/386/382 224/388/384
f 120/387/383 224/388/384 121/389/385
f 121/389/385 224/388/384 225/390/386
f 121/389/385 225/390/386 122/391/387
f 122/391/387 225/390/386 226/392/388
f 122/391/387 226/392/388 123/393/389
f 123/393/389 226/392/388 227/394/390
f 123/393/389 227/394/390 124/395/391
f 124/395/391 227/394/390 228/396/392
f 124/395/391 228/396/392 125/397/393
f 125/397/393 228/396/392 229/398/394
f 125/397/393 229/398/394 126/399/395
f 126/399/395 229/398/394 230/400/396
f 126/399/395 230/400/396 127/401/397
f 127/401/397 230/400/396 231/402/398
f 127/401/397 231/402/398 128/320/316
f 128/320/316 231/402/398 232/321/317
f 247/403/399 203/404/400 246/405/401
f 246/405/401 203/404/400 232/406/402
f 246/405/401 232/406/402 245/407/403
f 245/407/403 232/406/402 231/408/404
f 245/407/403 231/408/404 244/409/405
f 244/409/405 231/408/404 230/410/406
f 244/409/405 230/410/406 243/411/407
f 243/411/407 230/410/406 229/412/408
f 243/411/407 229/412/408 242/413/409
f 242/413/409 229/412/408 228/414/410
f 242/413/409 228/414/410 241/415/411
f 241/415/411 228/414/410 227/416/412
f 241/415/411 227/416/412 240/417/413
f 240/417/413 227/416/412 226/418/414
f 240/417/413 226/418/414 239/419/415
f 239/419/415 226/418/414 225/420/416
f 239/419/415 225/420/416 238/421/417
f 238/421/417 225/420/416 224/422/418
f 238/421/417 224/422/418 237/423/419
f 237/423/419 224/422/418 223/424/420
f 237/423/419 223/424/420 236/425/421
f 236/425/421 223/424/420 222/426/422
f 236/425/421 222/426/422 235/427/423
f 235/427/423 222/426/422 221/428/424
f 235/427/423 221/428/424 234/429/425
f 234/429/425 221/428/424 220/430/426
f 234/429/425 220/430/426 233/431/427
f 233/431/427 220/430/426 219/432/428
f 219/433/429 218/434/430 233/435/431
f 233/435/431 218/434/430 248/436/432
f 2/437/433 1/438/434 248/439/435
f 248/439/435 1/438/434 24/440/436
f 248/439/435 24/440/436 233/441/437
f 233/441/437 24/440/436 23/442/438
f 233/441/437 23/442/438 22/443/439
f 22/443/439 21/444/440 233/441/437
f 233/441/437 21/444/440 20/445/441
f 233/441/437 20/445/441 19/446/442
f 19/446/442 18/447/443 233/441/437
f 233/441/437 18/447/443 17/448/444
f 233/441/437 17/448/444 234/449/445
f 234/449/445 17/448/444 16/450/446
f 234/449/445 16/450/446 235/451/447
f 235/451/447 16/450/446 236/452/448
f 236/452/448 16/450/446 237/453/449
f 237/453/449 16/450/446 15/454/450
f 237/453/449 15/454/450 238/455/451
f 238/455/451 15/454/450 239/456/452
f 239/456/452 15/454/450 50/457/453
f 239/456/452 50/457/453 240/458/454
f 240/458/454 50/457/453 241/459/455
f 241/459/455 50/457/453 242/460/456
f 242/460/456 50/457/453 49/461/457
f 242/460/456 49/461/457 243/462/458
f 243/462/458 49/461/457 244/463/459
f 244/463/459 49/461/457 72/464/460
f 244/463/459 72/464/460 245/465/461
f 245/465/461 72/464/460 71/466/462
f 245/465/461 71/466/462 70/467/463
f 50/457/453 15/454/450 51/468/464
f 51/468/464 15/454/450 14/469/465
f 51/468/464 14/469/465 256/470/466
f 256/470/466 14/469/465 255/471/467
f 255/471/467 14/469/465 254/472/468
f 254/472/468 14/469/465 253/473/469
f 253/473/469 14/469/465 13/474/470
f 253/473/469 13/474/470 252/475/471
f 252/475/471 13/474/470 251/476/472
f 251/476/472 13/474/470 12/477/473
f 251/476/472 12/477/473 250/478/474
f 250/478/474 12/477/473 11/479/475
f 250/478/474 11/479/475 10/480/476
f 250/478/474 10/480/476 249/481/477
f 249/481/477 10/480/476 9/482/478
f 249/481/477 9/482/478 8/483/479
f 8/483/479 7/484/480 249/481/477
f 249/481/477 7/484/480 6/485/481
f 249/481/477 6/485/481 5/486/482
f 249/481/477 5/486/482 248/439/435
f 248/439/435 5/486/482 4/487/483
f 248/439/435 4/487/483 3/488/484
f 3/488/484 2/437/433 248/439/435
f 245/465/461 70/467/463 246/489/485
f 246/489/485 70/467/463 69/490/486
f 246/489/485 69/490/486 68/491/487
f 68/491/487 67/492/488 246/489/485
f 246/489/485 67/492/488 66/493/489
f 246/489/485 66/493/489 247/494/490
f 247/494/490 66/493/489 65/495/491
f 247/494/490 65/495/491 64/496/492
f 64/496/492 63/497/493 247/494/490
f 247/494/490 63/497/493 62/498/494
f 247/494/490 62/498/494 61/499/495
f 247/494/490 61/499/495 262/500/496
f 262/500/496 61/499/495 60/501/497
f 262/500/496 60/501/497 59/502/498
f 59/502/498 58/503/499 262/500/496
f 262/500/496 58/503/499 57/504/500
f 262/500/496 57/504/500 56/505/501
f 56/505/501 55/506/502 262/500/496
f 262/500/496 55/506/502 54/507/503
f 262/500/496 54/507/503 53/508/504
f 262/500/496 53/508/504 261/509/505
f 261/509/505 53/508/504 52/510/506
f 261/509/505 52/510/506 260/511/507
f 260/511/507 52/510/506 259/512/508
f 259/512/508 52/510/506 51/468/464
f 259/512/508 51/468/464 258/513/509
f 258/513/509 51/468/464 257/514/510
f 257/514/510 51/468/464 256/470/466
f 248/515/511 218/516/512 249/517/513
f 249/517/513 218/516/512 217/518/514
f 249/517/513 217/518/514 250/519/515
f 250/519/515 217/518/514 216/520/516
f 250/519/515 216/520/516 251/521/517
f 251/521/517 216/520/516 215/522/518
f 251/521/517 215/522/518 252/523/519
f 252/523/519 215/522/518 214/524/520
f 252/523/519 214/524/520 253/525/521
f 253/525/521 214/524/520 213/526/522
f 253/525/521 213/526/522 254/527/523
f 254/527/523 213/526/522 212/528/524
f 254/527/523 212/528/524 255/529/525
f 255/529/525 212/528/524 211/530/526
f 255/529/525 211/530/526 256/531/527
f 256/531/527 211/530/526 210/532/528
f 256/531/527 210/532/528 257/533/529
f 257/533/529 210/532/528 209/534/530
f 257/533/529 209/534/530 258/535/531
f 258/535/531 209/534/530 208/536/532
f 258/535/531 208/536/532 259/537/533
f 259/537/533 208/536/532 207/538/534
f 259/537/533 207/538/534 260/539/535
f 260/539/535 207/538/534 206/540/536
f 260/539/535 206/540/536 261/541/537
f 261/541/537 206/540/536 205/542/538
f 261/541/537 205/542/538 262/543/539
f 262/543/539 205/542/538 204/544/540
f 204/545/541 203/546/542 262/547/543
f 262/547/543 203/546/542 247/548/544
# 262 vertices
# 548 texture params
# 544 normals
# 520 facets

# 1 groups
